<svg xmlns="http://www.w3.org/2000/svg" version="1.1" xmlns:xlink="http://www.w3.org/1999/xlink" xmlns:svgjs="http://svgjs.dev/svgjs" width="3840" height="2160" preserveAspectRatio="none" viewBox="0 0 3840 2160"><g mask="url(&quot;#SvgjsMask1075&quot;)" fill="none"><rect width="3840" height="2160" x="0" y="0" fill="rgba(105, 27, 5, 1)"></rect><path d="M 0,14 C 256,63 768,250.4 1280,259 C 1792,267.6 2048,75.2 2560,57 C 3072,38.8 3584,145.8 3840,168L3840 2160L0 2160z" fill="rgba(105, 27, 5, 1)"></path><path d="M 0,277 C 256,312 768,446.4 1280,452 C 1792,457.6 2048,290.6 2560,305 C 3072,319.4 3584,480.2 3840,524L3840 2160L0 2160z" fill="rgba(159, 50, 9, 1)"></path><path d="M 0,656 C 256,670.4 768,748.8 1280,728 C 1792,707.2 2048,558.8 2560,552 C 3072,545.2 3584,665.6 3840,694L3840 2160L0 2160z" fill="rgba(182, 94, 21, 1)"></path><path d="M 0,1014 C 256,998 768,941 1280,934 C 1792,927 2048,998.8 2560,979 C 3072,959.2 3584,863.8 3840,835L3840 2160L0 2160z" fill="rgba(184, 113, 32, 1)"></path><path d="M 0,1165 C 256,1193 768,1310.8 1280,1305 C 1792,1299.2 2048,1150.6 2560,1136 C 3072,1121.4 3584,1212.8 3840,1232L3840 2160L0 2160z" fill="rgba(189, 157, 117, 1)"></path><path d="M 0,1550 C 256,1529 768,1450.4 1280,1445 C 1792,1439.6 2048,1524.8 2560,1523 C 3072,1521.2 3584,1453.4 3840,1436L3840 2160L0 2160z" fill="rgba(50, 79, 83, 1)"></path><path d="M 0,1784 C 153.6,1753.2 460.8,1629.2 768,1630 C 1075.2,1630.8 1228.8,1776.4 1536,1788 C 1843.2,1799.6 1996.8,1674.4 2304,1688 C 2611.2,1701.6 2764.8,1844.6 3072,1856 C 3379.2,1867.4 3686.4,1767.2 3840,1745L3840 2160L0 2160z" fill="rgba(29, 53, 59, 1)"></path><path d="M 0,2096 C 256,2058.4 768,1914.8 1280,1908 C 1792,1901.2 2048,2043.6 2560,2062 C 3072,2080.4 3584,2012.4 3840,2000L3840 2160L0 2160z" fill="rgba(15, 32, 40, 1)"></path></g><defs><mask id="SvgjsMask1075"><rect width="3840" height="2160" fill="#ffffff"></rect></mask></defs></svg>