<svg xmlns="http://www.w3.org/2000/svg" x="0px" y="0px" viewBox="10.64499568939209 15.231854438781738 42.71013641357422 33.53614807128906" enable-background="new 0 0 64 64">
<g>
	<g>
	</g>
	
		<path fill="#F1C40FFF" stroke="#000000" stroke-width="1.5" stroke-linecap="round" stroke-linejoin="round" stroke-miterlimit="10" d="   M49.86,20.659l2.718,12.385c0.116,0.527-0.149,1.046-0.622,1.273c-0.037,0.018-0.084,0.039-0.132,0.05   c-1.846,0.825-3.035,2.683-3.011,4.705c0.011,0.049,0.012,0.1,0.01,0.141c-0.008,0.524-0.368,0.982-0.896,1.097l-21.498,4.718   c-0.527,0.116-1.046-0.149-1.273-0.622c-0.018-0.037-0.039-0.084-0.05-0.132c-0.825-1.846-2.683-3.035-4.705-3.011   c-0.049,0.011-0.1,0.012-0.141,0.01c-0.524-0.008-0.982-0.368-1.097-0.896l-2.718-12.385c-0.116-0.527,0.149-1.046,0.622-1.273   c0.037-0.018,0.074-0.037,0.123-0.047l0.01-0.002c1.846-0.825,3.035-2.683,3.011-4.705c-0.011-0.049-0.012-0.1-0.01-0.141   c0.008-0.524,0.368-0.982,0.896-1.097l21.498-4.718c0.527-0.116,1.046,0.149,1.273,0.622c0.018,0.037,0.037,0.074,0.047,0.123   l0.002,0.01c0.825,1.846,2.683,3.035,4.705,3.011c0.049-0.011,0.1-0.012,0.141-0.011C49.286,19.771,49.744,20.132,49.86,20.659z"/>
</g>
<g>
	
		<path fill="#F1C40FFF" stroke="#000000" stroke-width="1.5" stroke-linecap="round" stroke-linejoin="round" stroke-miterlimit="10" d="   M45.605,29.238v12.68c0,0.54-0.37,0.99-0.88,1.11c-0.04,0.01-0.09,0.02-0.14,0.02c-1.98,0.41-3.54,1.97-3.95,3.95   c0,0.05-0.01,0.1-0.02,0.14c-0.12,0.51-0.57,0.88-1.11,0.88h-22.01c-0.54,0-0.99-0.37-1.11-0.88c-0.01-0.04-0.02-0.09-0.02-0.14   c-0.41-1.98-1.97-3.54-3.95-3.95c-0.05,0-0.1-0.01-0.14-0.02c-0.51-0.12-0.88-0.57-0.88-1.11v-12.68c0-0.54,0.37-0.99,0.88-1.11   c0.04-0.01,0.08-0.02,0.13-0.02h0.01c1.98-0.41,3.54-1.97,3.95-3.95c0-0.05,0.01-0.1,0.02-0.14c0.12-0.51,0.57-0.88,1.11-0.88   h22.01c0.54,0,0.99,0.37,1.11,0.88c0.01,0.04,0.02,0.08,0.02,0.13v0.01c0.41,1.98,1.97,3.54,3.95,3.95c0.05,0,0.1,0.01,0.14,0.02   C45.235,28.248,45.605,28.698,45.605,29.238z"/>
</g>
<g>
	
		<line fill="none" stroke="#000000" stroke-width="1.5" stroke-linecap="round" stroke-linejoin="round" stroke-miterlimit="10" x1="22.279" y1="44.908" x2="22.279" y2="41.798"/>
	
		<line fill="none" stroke="#000000" stroke-width="1.5" stroke-linecap="round" stroke-linejoin="round" stroke-miterlimit="10" x1="22.279" y1="37.133" x2="22.279" y2="34.023"/>
	
		<line fill="none" stroke="#000000" stroke-width="1.5" stroke-linecap="round" stroke-linejoin="round" stroke-miterlimit="10" x1="22.279" y1="29.358" x2="22.279" y2="26.248"/>
</g>
</svg>