<svg xmlns="http://www.w3.org/2000/svg" version="1.1" xmlns:xlink="http://www.w3.org/1999/xlink" xmlns:svgjs="http://svgjs.dev/svgjs" width="3840" height="2160" preserveAspectRatio="none" viewBox="0 0 3840 2160"><g mask="url(&quot;#SvgjsMask1038&quot;)" fill="none"><rect width="3840" height="2160" x="0" y="0" fill="rgba(105, 27, 5, 1)"></rect><path d="M 0,47 C 256,86 768,229.4 1280,242 C 1792,254.6 2048,105.4 2560,110 C 3072,114.6 3584,234 3840,265L3840 2160L0 2160z" fill="rgba(105, 27, 5, 1)"></path><path d="M 0,522 C 256,475.4 768,295.2 1280,289 C 1792,282.8 2048,490.8 2560,491 C 3072,491.2 3584,330.2 3840,290L3840 2160L0 2160z" fill="rgba(159, 50, 9, 1)"></path><path d="M 0,703 C 256,682.6 768,606 1280,601 C 1792,596 2048,683.4 2560,678 C 3072,672.6 3584,594.8 3840,574L3840 2160L0 2160z" fill="rgba(182, 94, 21, 1)"></path><path d="M 0,1069 C 256,1023 768,848 1280,839 C 1792,830 2048,1008.2 2560,1024 C 3072,1039.8 3584,939.2 3840,918L3840 2160L0 2160z" fill="rgba(184, 113, 32, 1)"></path><path d="M 0,1135 C 256,1165.2 768,1292.2 1280,1286 C 1792,1279.8 2048,1092.6 2560,1104 C 3072,1115.4 3584,1295.2 3840,1343L3840 2160L0 2160z" fill="rgba(189, 157, 117, 1)"></path><path d="M 0,1509 C 256,1485.2 768,1378 1280,1390 C 1792,1402 2048,1557.4 2560,1569 C 3072,1580.6 3584,1472.2 3840,1448L3840 2160L0 2160z" fill="rgba(50, 79, 83, 1)"></path><path d="M 0,1854 C 153.6,1816.8 460.8,1664.2 768,1668 C 1075.2,1671.8 1228.8,1856.8 1536,1873 C 1843.2,1889.2 1996.8,1762.6 2304,1749 C 2611.2,1735.4 2764.8,1805.6 3072,1805 C 3379.2,1804.4 3686.4,1757.8 3840,1746L3840 2160L0 2160z" fill="rgba(29, 53, 59, 1)"></path><path d="M 0,2088 C 256,2054.4 768,1915.2 1280,1920 C 1792,1924.8 2048,2110.4 2560,2112 C 3072,2113.6 3584,1964.8 3840,1928L3840 2160L0 2160z" fill="rgba(15, 32, 40, 1)"></path></g><defs><mask id="SvgjsMask1038"><rect width="3840" height="2160" fill="#ffffff"></rect></mask></defs></svg>